<svg width="58" height="26" viewBox="0 0 58 26" fill="none" xmlns="http://www.w3.org/2000/svg">
<path fill-rule="evenodd" clip-rule="evenodd" d="M31.3975 3.73597L27.3584 4.62337V1.27097L31.3975 0.400002V3.73597ZM39.7975 5.59293C38.2205 5.59293 37.2067 6.34887 36.6435 6.87473L36.4343 5.85587H32.8941V25.0171L36.9171 24.1462L36.9331 19.4955C37.5125 19.9228 38.3653 20.5308 39.7814 20.5308C42.6619 20.5308 45.2849 18.1644 45.2849 12.9551C45.2688 8.1894 42.6136 5.59293 39.7975 5.59293ZM38.8318 16.9155C37.8824 16.9155 37.3192 16.5704 36.933 16.1431L36.9169 10.0464C37.3353 9.5698 37.9146 9.24113 38.8318 9.24113C40.2962 9.24113 41.31 10.9173 41.31 13.0701C41.31 15.2722 40.3123 16.9155 38.8318 16.9155ZM57.9654 13.1194C57.9654 8.91247 55.97 5.59293 52.1562 5.59293C48.3263 5.59293 46.0091 8.91247 46.0091 13.0865C46.0091 18.033 48.7447 20.5308 52.6711 20.5308C54.5861 20.5308 56.0344 20.0871 57.1286 19.4627V16.176C56.0344 16.7347 54.7792 17.0798 53.1861 17.0798C51.6252 17.0798 50.2412 16.5211 50.0642 14.582H57.9332C57.9332 14.4914 57.939 14.2856 57.9456 14.0486V14.0485L57.9457 14.0482V14.0482V14.0481L57.9457 14.0479C57.9547 13.7259 57.9654 13.3464 57.9654 13.1194ZM50.0159 11.5582C50.0159 9.70127 51.1263 8.9289 52.1401 8.9289C53.1217 8.9289 54.1676 9.70127 54.1676 11.5582H50.0159ZM27.3584 5.8723H31.3975V20.2515H27.3584V5.8723ZM22.7723 5.8723L23.0298 7.08837C23.9792 5.31357 25.862 5.6751 26.3769 5.8723V9.65197C25.8781 9.4712 24.2689 9.24113 23.3195 10.5065V20.2515H19.2965V5.8723H22.7723ZM14.9837 2.30627L11.0573 3.1608L11.0412 16.3239C11.0412 18.756 12.8274 20.5473 15.209 20.5473C16.5286 20.5473 17.4941 20.3008 18.0251 20.005V16.669C17.5102 16.8826 14.9676 17.6386 14.9676 15.2064V9.3726H18.0251V5.8723H14.9676L14.9837 2.30627ZM5.47356 9.15897C4.62069 9.15897 4.10575 9.40547 4.10575 10.0464C4.10575 10.7461 4.99197 11.0539 6.09143 11.4358C7.88381 12.0584 10.2429 12.8778 10.2529 15.9131C10.2529 18.8546 7.95172 20.5473 4.6046 20.5473C3.22069 20.5473 1.70804 20.2679 0.211493 19.6106V15.6994C1.56322 16.4554 3.26896 17.0141 4.6046 17.0141C5.50574 17.0141 6.14942 16.7676 6.14942 16.0117C6.14942 15.2366 5.18874 14.8823 4.02893 14.4545C2.26262 13.8031 0.034481 12.9814 0.034481 10.2436C0.034481 7.33487 2.20689 5.59293 5.47356 5.59293C6.80919 5.59293 8.12873 5.80657 9.46437 6.34887V10.2107C8.24138 9.53693 6.69655 9.15897 5.47356 9.15897Z" fill="#6772E5"/>
</svg>
